<?xml version="1.0" encoding="UTF-8"?>
<svg xmlns="http://www.w3.org/2000/svg" xmlns:xlink="http://www.w3.org/1999/xlink" viewBox="0 0 915.92 282.17">
  <defs>
    <style>
      .cls-1 {
        fill: #020a37;
      }

      .cls-2 {
        fill: #00f8ff;
        opacity: .45;
      }

      .cls-3 {
        fill: #f8faff;
      }

      .cls-4 {
        fill: #ebeff7;
      }

      .cls-5 {
        fill: #265cfb;
      }

      .cls-6 {
        fill: #255dfb;
      }

      .cls-7 {
        fill: #dae3fc;
      }

      .cls-8 {
        fill: url(#linear-gradient);
      }

      .cls-9 {
        fill: #e7ebf7;
      }

      .cls-10 {
        fill: #2463c9;
      }
    </style>
    <linearGradient id="linear-gradient" x1="68.32" y1="267.11" x2="209.36" y2="22.82" gradientUnits="userSpaceOnUse">
      <stop offset="0" stop-color="#c6e0f5"/>
      <stop offset="0" stop-color="#bce1f5"/>
      <stop offset="0" stop-color="#a3e4f6"/>
      <stop offset="0" stop-color="#79eaf8"/>
      <stop offset="0" stop-color="#40f2fb"/>
      <stop offset="0" stop-color="#00fcff"/>
      <stop offset=".06" stop-color="#00f5fe"/>
      <stop offset=".14" stop-color="#00e2fe"/>
      <stop offset=".24" stop-color="#00c4fc"/>
      <stop offset=".34" stop-color="#009afb"/>
      <stop offset=".42" stop-color="#0078fa"/>
      <stop offset=".53" stop-color="#1f61fb"/>
      <stop offset=".78" stop-color="#6e26fe"/>
      <stop offset=".82" stop-color="#7f1bff"/>
    </linearGradient>
  </defs>
  <g id="BG">
    <path class="cls-8" d="M282.17,141.08c0,50.12-26.14,94.13-65.51,119.15-9.16-33.11-39.53-57.42-75.57-57.42s-66.39,24.3-75.57,57.42C26.11,235.21,0,191.21,0,141.08,0,63.17,63.14,0,141.08,0s141.08,63.17,141.08,141.08Z"/>
  </g>
  <g id="Neck">
    <rect class="cls-7" x="127.76" y="176.65" width="26.62" height="36.6"/>
  </g>
  <g id="Body">
    <path class="cls-3" d="M216.66,260.23c-21.85,13.9-47.76,21.93-75.57,21.93s-53.72-8.04-75.57-21.93c9.18-33.11,39.53-57.42,75.57-57.42s66.42,24.3,75.57,57.42Z"/>
  </g>
  <g id="Antenna">
    <rect class="cls-7" x="137.08" y="72.07" width="7.99" height="36.61"/>
    <circle class="cls-4" cx="141.07" cy="65.78" r="15.69"/>
    <circle class="cls-3" cx="141.07" cy="61.61" r="15.69"/>
  </g>
  <g id="Ears">
    <g>
      <circle class="cls-9" cx="218.67" cy="143.14" r="21.57"/>
      <circle class="cls-9" cx="63.47" cy="143.14" r="21.57"/>
    </g>
    <g>
      <circle class="cls-7" cx="218.67" cy="139.94" r="21.57"/>
      <circle class="cls-7" cx="63.47" cy="139.94" r="21.57"/>
    </g>
  </g>
  <g id="Head">
    <rect class="cls-4" x="54.02" y="102.82" width="174.11" height="86.28" rx="43.14" ry="43.14"/>
    <rect class="cls-3" x="54.02" y="98.33" width="174.11" height="86.28" rx="43.14" ry="43.14"/>
  </g>
  <g id="Eyes">
    <g>
      <path class="cls-10" d="M116.43,139.93c0,5.16-1.8,9.88-4.81,13.56-3.91,4.87-9.97,7.98-16.74,7.98-11.93,0-21.64-9.62-21.64-21.55,0-6.73,3.11-12.73,7.98-16.67,3.72-3.05,8.5-4.84,13.66-4.84,2.92,0,5.87,.61,8.37,1.67,5.23,2.18,9.3,6.25,11.51,11.38,1.03,2.63,1.67,5.45,1.67,8.47Z"/>
      <path class="cls-5" d="M116.43,139.93c0,5.16-1.8,9.88-4.81,13.56-3.69,2.98-8.4,4.78-13.53,4.78-11.93,0-21.64-9.62-21.64-21.55,0-5.13,1.8-9.78,4.78-13.47,3.72-3.05,8.5-4.84,13.66-4.84,2.92,0,5.87,.61,8.37,1.67,5.23,2.18,9.3,6.25,11.51,11.38,1.03,2.63,1.67,5.45,1.67,8.47Z"/>
      <path class="cls-2" d="M114.76,131.46c-1.47,2.08-3.88,3.37-6.61,3.37-4.49,0-8.14-3.69-8.14-8.27,0-2.63,1.25-5.03,3.24-6.48,5.23,2.18,9.3,6.25,11.51,11.38Z"/>
      <path class="cls-10" d="M208.87,139.93c0,4.97-1.67,9.52-4.55,13.18-3.88,5.1-10.07,8.4-17.03,8.4-11.9,0-21.58-9.65-21.58-21.58,0-6.57,2.95-12.47,7.6-16.42,3.75-3.24,8.66-5.16,13.98-5.16,11.93,0,21.58,9.68,21.58,21.58Z"/>
      <path class="cls-6" d="M208.87,139.93c0,4.97-1.67,9.52-4.55,13.18-3.75,3.24-8.63,5.16-13.95,5.16-11.9,0-21.64-9.62-21.64-21.55,0-5,1.7-9.56,4.59-13.21,3.75-3.24,8.66-5.16,13.98-5.16,11.93,0,21.58,9.68,21.58,21.58Z"/>
      <path class="cls-2" d="M207.04,131.47c-1.46,2.09-3.87,3.35-6.59,3.35-4.5,0-8.16-3.66-8.16-8.26,0-2.61,1.25-5.02,3.24-6.48,5.23,2.2,9.31,6.28,11.5,11.4Z"/>
    </g>
  </g>
  <g id="Type">
    <g>
      <path class="cls-1" d="M391.81,224.33c-7.48,0-13.92-1.16-19.31-3.49-5.4-2.33-9.84-5.52-13.33-9.6-3.49-4.07-6.07-8.89-7.73-14.45-1.66-5.57-2.49-11.59-2.49-18.07V96.98c0-6.64,.83-12.75,2.49-18.32,1.66-5.56,4.24-10.38,7.73-14.45,3.49-4.07,7.93-7.23,13.33-9.47,5.4-2.24,11.84-3.36,19.31-3.36s13.96,1.12,19.44,3.36c5.48,2.24,9.97,5.4,13.46,9.47,3.49,4.07,6.06,8.89,7.73,14.45,1.66,5.57,2.49,11.67,2.49,18.32v81.74c0,6.48-.83,12.5-2.49,18.07-1.66,5.57-4.24,10.39-7.73,14.45-3.49,4.07-7.98,7.27-13.46,9.6-5.48,2.32-11.96,3.49-19.44,3.49Zm0-23.68c5.15,0,8.89-1.62,11.21-4.86,2.32-3.24,3.49-7.43,3.49-12.59V92.49c0-5.15-1.16-9.35-3.49-12.59-2.33-3.24-6.07-4.86-11.21-4.86s-8.64,1.62-10.97,4.86c-2.33,3.24-3.49,7.44-3.49,12.59v90.72c0,5.15,1.16,9.35,3.49,12.59,2.32,3.24,5.98,4.86,10.97,4.86Z"/>
      <path class="cls-1" d="M448.88,81.03h27.41v14.45h.5c1.66-3.99,4.36-7.73,8.1-11.21s9.35-5.23,16.82-5.23c8.64,0,15.24,2.83,19.81,8.47,4.57,5.65,6.85,14.7,6.85,27.17v74.02c0,12.46-2.49,21.52-7.48,27.17-4.98,5.65-11.8,8.47-20.44,8.47-3.82,0-7.02-.46-9.59-1.37-2.58-.91-4.78-2.16-6.61-3.74-1.83-1.58-3.32-3.32-4.48-5.23-1.17-1.91-2.16-3.86-2.99-5.86h-.5v36.64h-27.41V81.03Zm52.09,34.89c0-4.32-.83-7.81-2.49-10.47-1.66-2.66-4.9-3.99-9.72-3.99-4.32,0-7.44,1.16-9.35,3.49-1.91,2.33-2.95,5.4-3.12,9.22v75.51c.16,3.82,1.2,6.85,3.12,9.1,1.91,2.24,5.02,3.37,9.35,3.37,4.82,0,8.06-1.33,9.72-3.99,1.66-2.66,2.49-6.14,2.49-10.47V115.92Z"/>
      <path class="cls-1" d="M537.11,81.03h10.22v-27.66h27.17v27.66h17.2v20.93h-17.2v90.47c0,2.83,.62,4.82,1.87,5.98,1.25,1.16,3.45,1.74,6.6,1.74h8.72v22.18h-11.71c-12.3,0-20.81-2.41-25.54-7.23-4.74-4.82-7.1-12.87-7.1-24.17V101.96h-10.22v-20.93Z"/>
      <path class="cls-1" d="M640.78,224.33c-6.81,0-12.8-1.04-17.94-3.12-5.15-2.08-9.39-5.02-12.71-8.85-3.33-3.82-5.82-8.35-7.48-13.58-1.66-5.23-2.49-11-2.49-17.32v-59.56c0-12.79,3.32-23.13,9.97-31.03,6.64-7.89,16.86-11.84,30.65-11.84s23.76,3.95,30.41,11.84c6.64,7.89,9.97,18.24,9.97,31.03v59.56c0,12.63-3.33,22.93-9.97,30.9-6.65,7.98-16.78,11.96-30.41,11.96Zm0-22.68c4.49,0,7.76-1.45,9.84-4.36,2.08-2.91,3.12-6.77,3.12-11.59V117.66c0-4.82-1.04-8.68-3.12-11.59-2.08-2.91-5.36-4.36-9.84-4.36s-8.02,1.46-10.09,4.36c-2.08,2.91-3.12,6.77-3.12,11.59v68.04c0,4.82,1.04,8.68,3.12,11.59,2.08,2.91,5.44,4.36,10.09,4.36Z"/>
      <path class="cls-1" d="M744.71,115.67c0-4.32-.71-7.76-2.12-10.34-1.41-2.57-4.45-3.86-9.1-3.86s-7.73,1.29-9.22,3.86c-1.5,2.58-2.24,6.02-2.24,10.34v106.67h-27.41V81.03h27.41v14.21h.5c1.66-3.99,4.28-7.68,7.85-11.09,3.57-3.4,8.85-5.11,15.83-5.11,11.63,0,19.27,5.48,22.93,16.45h.75c1.83-3.99,4.74-7.73,8.72-11.21s9.55-5.23,16.7-5.23c9.14,0,15.86,2.83,20.19,8.47,4.32,5.65,6.48,14.62,6.48,26.92v107.91h-27.41V115.67c0-4.32-.71-7.76-2.12-10.34-1.41-2.57-4.36-3.86-8.85-3.86s-7.31,1.21-8.97,3.61c-1.66,2.41-2.58,5.53-2.74,9.35v107.91h-27.17V115.67Z"/>
      <path class="cls-1" d="M875.55,224.33c-6.81,0-12.8-1.04-17.94-3.12-5.15-2.08-9.39-5.02-12.71-8.85-3.33-3.82-5.82-8.35-7.48-13.58-1.66-5.23-2.49-11-2.49-17.32v-59.56c0-12.79,3.32-23.13,9.97-31.03,6.64-7.89,16.86-11.84,30.65-11.84s23.76,3.95,30.41,11.84c6.64,7.89,9.97,18.24,9.97,31.03v59.56c0,12.63-3.33,22.93-9.97,30.9-6.65,7.98-16.78,11.96-30.41,11.96Zm0-22.68c4.49,0,7.76-1.45,9.84-4.36,2.08-2.91,3.12-6.77,3.12-11.59V117.66c0-4.82-1.04-8.68-3.12-11.59-2.08-2.91-5.36-4.36-9.84-4.36s-8.02,1.46-10.09,4.36c-2.08,2.91-3.12,6.77-3.12,11.59v68.04c0,4.82,1.04,8.68,3.12,11.59,2.08,2.91,5.44,4.36,10.09,4.36Z"/>
    </g>
  </g>
</svg>