<?xml version="1.0" encoding="utf-8"?>
<!-- Generator: Adobe Illustrator 26.0.3, SVG Export Plug-In . SVG Version: 6.00 Build 0)  -->
<svg version="1.1" id="Layer_1" xmlns="http://www.w3.org/2000/svg" xmlns:xlink="http://www.w3.org/1999/xlink" x="0px" y="0px"
	 viewBox="0 0 100 100" style="enable-background:new 0 0 100 100;" xml:space="preserve">
<style type="text/css">
	.st0{fill:url(#SVGID_1_);}
	.st1{fill:url(#SVGID_00000054987881216488252150000007225927060228025521_);}
	.st2{fill:#E7EBF7;}
	.st3{fill:#DAE3FC;}
	.st4{fill:#EBEFF7;}
	.st5{fill:#F8FAFF;}
	.st6{fill:#2463C9;}
	.st7{fill:#265CFB;}
	.st8{opacity:0.45;fill:#00F8FF;}
	.st9{fill:#255DFB;}
</style>
<g>
	<linearGradient id="SVGID_1_" gradientUnits="userSpaceOnUse" x1="29.2392" y1="85.957" x2="69.4796" y2="16.2585">
		<stop  offset="0" style="stop-color:#C6E0F5"/>
		<stop  offset="5.720918e-05" style="stop-color:#BDE1F5"/>
		<stop  offset="1.523883e-04" style="stop-color:#A3E5F7"/>
		<stop  offset="2.737977e-04" style="stop-color:#7AEBF9"/>
		<stop  offset="4.159148e-04" style="stop-color:#40F3FC"/>
		<stop  offset="5.580357e-04" style="stop-color:#00FCFF"/>
		<stop  offset="5.831366e-02" style="stop-color:#00F5FF"/>
		<stop  offset="0.1402" style="stop-color:#00E3FE"/>
		<stop  offset="0.2365" style="stop-color:#00C4FD"/>
		<stop  offset="0.3429" style="stop-color:#009AFB"/>
		<stop  offset="0.4181" style="stop-color:#0078FA"/>
		<stop  offset="0.5306" style="stop-color:#1F61FB"/>
		<stop  offset="0.7757" style="stop-color:#6F27FE"/>
		<stop  offset="0.8238" style="stop-color:#7F1BFF"/>
	</linearGradient>
	<path class="st0" d="M90.3,50c0,14.3-7.5,26.9-18.7,34C68.9,74.5,60.3,67.6,50,67.6S31.1,74.5,28.4,84C17.2,76.9,9.7,64.3,9.7,50
		c0-22.2,18-40.3,40.3-40.3C72.2,9.7,90.3,27.8,90.3,50z"/>
	
		<linearGradient id="SVGID_00000127018782595493578260000015988037602979807114_" gradientUnits="userSpaceOnUse" x1="29.2392" y1="85.957" x2="69.4796" y2="16.2585">
		<stop  offset="0" style="stop-color:#C6E0F5"/>
		<stop  offset="5.720918e-05" style="stop-color:#BDE1F5"/>
		<stop  offset="1.523883e-04" style="stop-color:#A3E5F7"/>
		<stop  offset="2.737977e-04" style="stop-color:#7AEBF9"/>
		<stop  offset="4.159148e-04" style="stop-color:#40F3FC"/>
		<stop  offset="5.580357e-04" style="stop-color:#00FCFF"/>
		<stop  offset="5.831366e-02" style="stop-color:#00F5FF"/>
		<stop  offset="0.1402" style="stop-color:#00E3FE"/>
		<stop  offset="0.2365" style="stop-color:#00C4FD"/>
		<stop  offset="0.3429" style="stop-color:#009AFB"/>
		<stop  offset="0.4181" style="stop-color:#0078FA"/>
		<stop  offset="0.5306" style="stop-color:#1F61FB"/>
		<stop  offset="0.7757" style="stop-color:#6F27FE"/>
		<stop  offset="0.8238" style="stop-color:#7F1BFF"/>
	</linearGradient>
	<path style="fill:url(#SVGID_00000127018782595493578260000015988037602979807114_);" d="M90.3,50c0,14.3-7.5,26.9-18.7,34
		C68.9,74.5,60.3,67.6,50,67.6S31.1,74.5,28.4,84C17.2,76.9,9.7,64.3,9.7,50c0-22.2,18-40.3,40.3-40.3C72.2,9.7,90.3,27.8,90.3,50z"
		/>
	<g>
		<circle class="st2" cx="72.1" cy="50.6" r="6.2"/>
		<circle class="st2" cx="27.9" cy="50.6" r="6.2"/>
	</g>
	<g>
		<circle class="st3" cx="72.1" cy="49.7" r="6.2"/>
		<circle class="st3" cx="27.9" cy="49.7" r="6.2"/>
	</g>
	<rect x="48.9" y="30.3" class="st3" width="2.3" height="10.4"/>
	<rect x="46.2" y="60.1" class="st3" width="7.6" height="10.4"/>
	<path class="st4" d="M37.5,63.7h25.1c6.8,0,12.3-5.5,12.3-12.3v0c0-6.8-5.5-12.3-12.3-12.3H37.5c-6.8,0-12.3,5.5-12.3,12.3v0
		C25.2,58.2,30.7,63.7,37.5,63.7z"/>
	<path class="st5" d="M37.5,62.4h25.1c6.8,0,12.3-5.5,12.3-12.3v0c0-6.8-5.5-12.3-12.3-12.3H37.5c-6.8,0-12.3,5.5-12.3,12.3v0
		C25.2,56.9,30.7,62.4,37.5,62.4z"/>
	<g>
		<path class="st6" d="M43,49.7c0,1.5-0.5,2.8-1.4,3.9c-1.1,1.4-2.8,2.3-4.8,2.3c-3.4,0-6.2-2.7-6.2-6.1c0-1.9,0.9-3.6,2.3-4.8
			c1.1-0.9,2.4-1.4,3.9-1.4c0.8,0,1.7,0.2,2.4,0.5c1.5,0.6,2.7,1.8,3.3,3.2C42.8,48,43,48.8,43,49.7z"/>
		<path class="st7" d="M43,49.7c0,1.5-0.5,2.8-1.4,3.9c-1.1,0.9-2.4,1.4-3.9,1.4c-3.4,0-6.2-2.7-6.2-6.1c0-1.5,0.5-2.8,1.4-3.8
			c1.1-0.9,2.4-1.4,3.9-1.4c0.8,0,1.7,0.2,2.4,0.5c1.5,0.6,2.7,1.8,3.3,3.2C42.8,48,43,48.8,43,49.7z"/>
		<path class="st8" d="M42.5,47.3c-0.4,0.6-1.1,1-1.9,1c-1.3,0-2.3-1.1-2.3-2.4c0-0.8,0.4-1.4,0.9-1.8
			C40.7,44.6,41.9,45.8,42.5,47.3z"/>
		<path class="st6" d="M69.3,49.7c0,1.4-0.5,2.7-1.3,3.8c-1.1,1.5-2.9,2.4-4.9,2.4c-3.4,0-6.2-2.8-6.2-6.2c0-1.9,0.8-3.6,2.2-4.7
			c1.1-0.9,2.5-1.5,4-1.5C66.6,43.5,69.3,46.3,69.3,49.7z"/>
		<path class="st9" d="M69.3,49.7c0,1.4-0.5,2.7-1.3,3.8c-1.1,0.9-2.5,1.5-4,1.5c-3.4,0-6.2-2.7-6.2-6.1c0-1.4,0.5-2.7,1.3-3.8
			c1.1-0.9,2.5-1.5,4-1.5C66.6,43.5,69.3,46.3,69.3,49.7z"/>
		<path class="st8" d="M68.8,47.3c-0.4,0.6-1.1,1-1.9,1c-1.3,0-2.3-1-2.3-2.4c0-0.7,0.4-1.4,0.9-1.9C67,44.6,68.2,45.8,68.8,47.3z"
			/>
	</g>
	<circle class="st4" cx="50" cy="28.5" r="4.5"/>
	<path class="st5" d="M71.6,84c-6.2,4-13.6,6.3-21.6,6.3S34.7,88,28.4,84c2.6-9.4,11.3-16.4,21.6-16.4S68.9,74.5,71.6,84z"/>
	<circle class="st5" cx="50" cy="27.3" r="4.5"/>
</g>
</svg>
